<svg width="204" height="64" viewBox="0 0 204 64" fill="none" xmlns="http://www.w3.org/2000/svg">
<g clip-path="url(#clip0_1_11)">
<path d="M37.592 53V18.224H26.504V40.688C25.208 42.344 23.048 44.072 19.88 44.072C16.28 44.072 14.12 42.632 14.12 38.456V18.224H3.032V42.992C3.032 49.4 6.56 53.864 14.48 53.864C20.312 53.864 24.344 51.272 26.504 48.824V53H37.592ZM59.1054 53V27.872H66.1614V18.224H59.1054V16.496C59.1054 14.048 60.8334 12.68 62.9214 12.68C64.5054 12.68 65.5134 13.112 66.3774 14.048L70.4814 7.712C68.1054 5.264 64.2174 4.256 60.4734 4.256C53.2014 4.256 48.0174 9.152 48.0174 16.496V18.224H42.2574V27.872H48.0174V53H59.1054ZM125.607 53V27.8C125.607 20.672 121.575 17.36 115.167 17.36C109.695 17.36 105.159 20.528 103.143 23.552C101.703 19.448 98.2469 17.36 93.2789 17.36C87.8069 17.36 83.3429 20.456 81.8309 22.472V18.224H70.7429V53H81.8309V30.536C82.9829 29.096 85.0709 27.152 88.0229 27.152C91.4069 27.152 92.6309 29.168 92.6309 31.832V53H103.719V30.536C104.799 29.096 106.959 27.152 109.983 27.152C113.295 27.152 114.591 29.168 114.591 31.832V53H125.607ZM150.447 53.864C157.935 53.864 162.615 50.48 164.703 47.456L157.503 40.688C156.135 42.632 153.903 44.072 150.951 44.072C146.343 44.072 142.815 40.832 142.815 35.576C142.815 30.32 146.343 27.152 150.951 27.152C153.903 27.152 156.135 28.448 157.503 30.464L164.703 23.768C162.615 20.672 157.935 17.36 150.447 17.36C139.575 17.36 131.439 24.704 131.439 35.576C131.439 46.52 139.575 53.864 150.447 53.864ZM190.479 53L204.159 18.224H192.423L184.503 40.256L176.655 18.224H164.991L178.671 53H190.479Z" fill="white"/>
</g>
<defs>
<clipPath id="clip0_1_11">
<rect width="204" height="64" fill="white"/>
</clipPath>
</defs>
</svg>
